<svg width="196" height="67" viewBox="0 0 196 67" fill="none" xmlns="http://www.w3.org/2000/svg">
    <path d="M100.323 15.4493L100.973 12.9513C101.073 12.5516 101.123 12.1519 101.123 11.7022C101.123 11.2526 101.023 10.5031 100.873 9.40397C100.723 8.55462 100.673 8.05501 100.623 7.8052C100.573 7.4055 100.573 7.05577 100.623 6.756C100.673 6.40627 100.773 6.1065 100.973 5.80673C101.322 5.25715 101.822 4.85745 102.472 4.75753C103.071 4.60765 103.721 4.75753 104.27 5.0573C104.87 5.40703 105.219 5.90665 105.469 6.50619C105.469 6.55615 105.519 6.60612 105.519 6.70604C105.569 6.70604 105.619 6.65608 105.669 6.65608C106.319 6.55615 106.968 6.65608 107.518 6.95585C108.067 7.30558 108.467 7.75524 108.667 8.35478C108.867 8.95432 108.817 9.60382 108.467 10.1034C108.217 10.5031 107.867 10.8529 107.418 11.1526C106.968 11.4024 106.369 11.7022 105.519 12.002C104.52 12.3517 103.771 12.6515 103.221 12.9013C102.821 13.1011 102.522 13.351 102.222 13.6008L100.323 15.4493ZM102.971 6.20642C102.921 6.20642 102.821 6.20642 102.771 6.20642C102.572 6.25638 102.372 6.35631 102.272 6.55615C102.222 6.70604 102.172 6.80596 102.122 6.95585C102.072 7.1557 102.072 7.35554 102.122 7.65531C102.122 7.8052 102.172 8.15493 102.322 9.15417C102.522 10.2533 102.572 11.0527 102.621 11.5523C103.221 11.2526 104.02 10.9528 105.02 10.6031C105.919 10.3033 106.369 10.1034 106.568 9.95355C106.818 9.80367 107.018 9.60382 107.168 9.40397C107.218 9.30405 107.318 9.1042 107.218 8.8544C107.118 8.60459 106.968 8.40474 106.718 8.25485C106.469 8.10497 106.219 8.05501 105.919 8.10497C105.719 8.15493 105.469 8.25485 105.219 8.50466L103.571 9.95355L103.97 7.8052C104.02 7.45547 104.02 7.1557 103.97 6.95585C103.871 6.65608 103.721 6.45623 103.471 6.30635C103.321 6.30635 103.121 6.20642 102.971 6.20642Z" fill="url(#paint0_linear)"/>
    <path d="M106.069 62.5134C105.619 62.5134 105.169 62.4135 104.77 62.1637C104.22 61.814 103.82 61.3144 103.621 60.7148C103.621 60.6649 103.571 60.6149 103.571 60.515C103.521 60.515 103.471 60.5649 103.421 60.5649C102.771 60.6648 102.122 60.5649 101.572 60.2652C101.023 59.9154 100.623 59.4658 100.423 58.8662C100.223 58.2167 100.273 57.6172 100.623 57.1176C100.873 56.7179 101.222 56.3681 101.672 56.0684C102.122 55.8186 102.721 55.5188 103.571 55.219C104.57 54.8693 105.319 54.5695 105.869 54.3197C106.219 54.1199 106.568 53.8701 106.868 53.6202L108.767 51.8716L108.117 54.3197C108.017 54.7194 107.967 55.1691 107.967 55.5687C107.967 56.0184 108.067 56.7678 108.217 57.867C108.417 59.0161 108.417 59.3159 108.467 59.4658C108.517 59.8655 108.517 60.2152 108.467 60.5649C108.417 60.9147 108.317 61.2144 108.117 61.5142C107.767 62.0638 107.268 62.4135 106.618 62.5634C106.418 62.5134 106.269 62.5134 106.069 62.5134ZM105.419 57.2175L105.02 59.3658C104.97 59.7156 104.97 60.0153 105.02 60.2152C105.119 60.515 105.269 60.7148 105.519 60.8647C105.769 61.0146 106.019 61.0645 106.269 61.0146C106.518 60.9646 106.668 60.8647 106.768 60.6649C106.818 60.515 106.868 60.415 106.918 60.2652C106.968 60.0653 106.968 59.8655 106.918 59.5657C106.918 59.4158 106.868 59.0661 106.718 58.0668C106.518 56.9677 106.468 56.1683 106.418 55.6687C105.819 55.9684 105.02 56.2682 104.02 56.6179C103.121 56.9177 102.671 57.1176 102.471 57.2675C102.222 57.4173 102.022 57.6172 101.872 57.817C101.772 57.9669 101.772 58.1668 101.822 58.3666C101.922 58.6164 102.072 58.8163 102.322 58.9162C102.571 59.0661 102.821 59.116 103.121 59.0661C103.321 59.0161 103.571 58.9162 103.82 58.6664L105.419 57.2175Z" fill="url(#paint1_linear)"/>
    <path d="M89.881 21.2949L99.5236 5.00734C100.873 2.75906 103.221 1.51002 105.669 1.51002C106.918 1.51002 108.167 1.80979 109.266 2.50925L130.45 15.0497C132.099 15.9989 133.248 17.5477 133.697 19.3963C133.847 19.9959 133.947 20.6454 133.897 21.2449H135.396C135.396 20.4955 135.346 19.7461 135.146 18.9966C134.597 16.7484 133.148 14.8998 131.199 13.7007L110.016 1.21025C105.919 -1.23788 100.623 0.161048 98.2246 4.20795L88.1323 21.2449H89.881V21.2949Z" fill="url(#paint2_linear)"/>
    <path d="M117.66 50.6226L111.215 61.5142C110.265 63.163 108.716 64.3121 106.868 64.7617C105.019 65.2114 103.121 64.9616 101.472 64.0123L80.2882 51.4719C79.8885 51.2221 79.4888 50.9723 79.1891 50.6725H77.1406C77.7901 51.5219 78.5895 52.2213 79.5388 52.7709L100.723 65.3113C102.072 66.1107 103.57 66.5104 105.119 66.5104C105.819 66.5104 106.568 66.4105 107.268 66.2606C109.516 65.711 111.364 64.2621 112.564 62.3136L119.458 50.6725H117.66V50.6226Z" fill="url(#paint3_linear)"/>
    <path d="M11.791 28.3896C12.0408 28.3896 12.1907 28.4895 12.3406 28.6394C12.4904 28.7893 12.5404 28.9892 12.5404 29.239V41.0799C12.5404 41.2797 12.4405 41.4796 12.2906 41.6295C12.1407 41.7794 11.9409 41.8793 11.741 41.8793C11.4912 41.8793 11.2914 41.7794 11.1415 41.6295C10.9916 41.4796 10.9416 41.2797 10.9416 41.0799V37.9323L11.3913 37.7325C11.3913 38.1821 11.2414 38.6817 10.9916 39.2313C10.7418 39.7309 10.3421 40.2306 9.89243 40.6302C9.44277 41.0799 8.84323 41.4296 8.24369 41.6794C7.59419 41.9293 6.89472 42.0791 6.1453 42.0791C4.94622 42.0791 3.89702 41.7794 2.99771 41.1798C2.04843 40.5803 1.29901 39.7309 0.799388 38.6318C0.249809 37.5826 0 36.3835 0 35.0345C0 33.6856 0.249809 32.4365 0.799388 31.4373C1.34897 30.3881 2.09839 29.5887 2.99771 28.9892C3.89702 28.3896 4.94622 28.0898 6.1453 28.0898C6.89472 28.0898 7.59419 28.2397 8.24369 28.4895C8.89319 28.7393 9.49274 29.0891 9.94239 29.5887C10.442 30.0384 10.7917 30.5879 11.0915 31.1375C11.3413 31.7371 11.4912 32.3366 11.4912 32.9861L10.9916 32.5364V29.189C10.9916 28.9392 11.0416 28.7893 11.1914 28.5895C11.3913 28.4895 11.5412 28.3896 11.791 28.3896ZM6.34514 40.6302C7.29442 40.6302 8.09381 40.3804 8.79327 39.9308C9.49274 39.4312 10.0923 38.7817 10.492 37.9323C10.8917 37.083 11.0915 36.1337 11.0915 35.0845C11.0915 34.0853 10.8917 33.136 10.492 32.2866C10.0923 31.4373 9.49274 30.7878 8.79327 30.3381C8.09381 29.8385 7.24446 29.6387 6.34514 29.6387C5.44583 29.6387 4.59648 29.8885 3.89702 30.3381C3.14759 30.7878 2.59801 31.4373 2.19832 32.2866C1.79862 33.086 1.59878 34.0353 1.59878 35.1345C1.59878 36.1837 1.79862 37.1329 2.19832 37.9823C2.59801 38.8316 3.14759 39.4811 3.89702 39.9807C4.59648 40.3804 5.39587 40.6302 6.34514 40.6302Z" fill="url(#paint4_linear)"/>
    <path d="M26.5296 28.4893C26.7794 28.4893 26.9293 28.5892 27.0792 28.7391C27.2291 28.889 27.279 29.0888 27.279 29.2886V36.683C27.279 38.4316 26.7794 39.7307 25.8302 40.63C24.8309 41.5293 23.5319 41.9789 21.8832 41.9789C20.2344 41.9789 18.8855 41.5293 17.9362 40.63C16.9869 39.7307 16.4873 38.3817 16.4873 36.683V29.2886C16.4873 29.0888 16.5872 28.889 16.7371 28.7391C16.887 28.5892 17.0868 28.4893 17.3367 28.4893C17.5865 28.4893 17.7363 28.5892 17.8862 28.7391C18.0361 28.889 18.0861 29.0888 18.0861 29.2886V36.683C18.0861 37.932 18.4358 38.8813 19.0853 39.5808C19.7848 40.2303 20.6841 40.58 21.8832 40.58C23.0823 40.58 24.0315 40.2303 24.731 39.5808C25.4305 38.9313 25.7302 37.982 25.7302 36.683V29.2886C25.7302 29.0888 25.7802 28.889 25.9301 28.7391C26.08 28.5392 26.2798 28.4893 26.5296 28.4893Z" fill="url(#paint5_linear)"/>
    <path d="M30.6764 39.7308C30.5265 39.481 30.4766 39.2811 30.4766 39.0813C30.4766 38.8814 30.5765 38.7315 30.8263 38.5817C30.9762 38.4817 31.1261 38.3818 31.3259 38.4318C31.5258 38.4817 31.6756 38.5317 31.8255 38.6816C32.2752 39.2811 32.8747 39.7807 33.5242 40.1804C34.2237 40.5801 35.0231 40.73 35.9224 40.73C36.422 40.73 36.9216 40.6301 37.3713 40.4802C37.8209 40.3303 38.2706 40.0805 38.5704 39.7308C38.8701 39.381 39.02 38.9314 39.02 38.4318C39.02 37.8822 38.8701 37.4325 38.5704 37.1328C38.2706 36.833 37.8709 36.5332 37.3713 36.3334C36.8717 36.1335 36.3221 35.9836 35.7725 35.8338C35.173 35.6839 34.6234 35.484 34.0738 35.2842C33.5242 35.0843 33.0246 34.8345 32.575 34.5348C32.1253 34.235 31.7756 33.8353 31.5258 33.4356C31.276 33.0359 31.1261 32.4863 31.1261 31.8368C31.1261 31.0874 31.3259 30.4379 31.7256 29.8883C32.1253 29.3387 32.6749 28.8891 33.3743 28.5893C34.0738 28.2895 34.8732 28.1396 35.7225 28.1396C36.1722 28.1396 36.6718 28.1896 37.1714 28.2895C37.6711 28.3895 38.1707 28.5893 38.6703 28.8391C39.1699 29.0889 39.6196 29.4387 39.9693 29.9383C40.1192 30.0882 40.2191 30.288 40.2191 30.4879C40.2191 30.6877 40.1192 30.8875 39.9693 31.0374C39.8194 31.1374 39.6695 31.1873 39.4697 31.1873C39.2698 31.1873 39.1199 31.0874 39.02 30.9875C38.6203 30.5378 38.1207 30.1381 37.5212 29.9383C36.9216 29.7384 36.2721 29.4886 35.6226 29.4886C35.123 29.4886 34.6234 29.5885 34.1737 29.7384C33.7241 29.8883 33.3743 30.1381 33.0746 30.4879C32.7748 30.8376 32.6249 31.2373 32.6249 31.7869C32.6749 32.2865 32.8248 32.6862 33.1745 33.0359C33.4743 33.3357 33.9239 33.6354 34.4735 33.8353C35.0231 34.0351 35.6226 34.235 36.2721 34.4348C36.8217 34.5847 37.3713 34.7346 37.8709 34.9344C38.3705 35.1343 38.8202 35.3841 39.2199 35.6339C39.6196 35.8837 39.9193 36.2834 40.1691 36.7331C40.419 37.1827 40.5189 37.7323 40.5189 38.3818C40.5189 39.1312 40.319 39.8307 39.8694 40.3803C39.4197 40.9299 38.8701 41.3795 38.1707 41.6793C37.4712 41.9791 36.6718 42.1289 35.7725 42.1289C34.8232 42.1289 33.9239 41.9291 33.0246 41.5794C32.1253 41.1797 31.3759 40.5801 30.6764 39.7308Z" fill="url(#paint6_linear)"/>
    <path d="M43.0172 39.7308C42.8673 39.5309 42.8174 39.3311 42.8174 39.1312C42.8174 38.9314 42.9173 38.7815 43.1671 38.6316C43.317 38.5317 43.4669 38.4318 43.6667 38.4817C43.8666 38.5317 44.0165 38.5817 44.1664 38.7315C44.616 39.3311 45.2156 39.8307 45.8651 40.2304C46.5645 40.6301 47.3639 40.78 48.2632 40.78C48.7628 40.78 49.2625 40.6801 49.7121 40.5302C50.1618 40.3803 50.6114 40.1305 50.9112 39.7807C51.211 39.431 51.3608 38.9814 51.3608 38.4817C51.3608 37.9322 51.211 37.4825 50.9112 37.1827C50.6114 36.883 50.2117 36.5832 49.7121 36.3833C49.2125 36.1835 48.6629 36.0336 48.1133 35.8837C47.5138 35.7338 46.9642 35.534 46.4146 35.3341C45.8651 35.1343 45.3654 34.8845 44.9158 34.5847C44.4661 34.2849 44.1164 33.8853 43.8666 33.4856C43.6168 33.0859 43.4669 32.4364 43.4669 31.8368C43.4669 31.0874 43.6667 30.4379 44.0664 29.8883C44.4661 29.3387 45.0157 28.8891 45.7152 28.5893C46.4146 28.2895 47.214 28.1396 48.0634 28.1396C48.513 28.1396 49.0126 28.1896 49.5123 28.2895C50.0119 28.3895 50.5115 28.5893 51.0111 28.8391C51.5107 29.0889 51.9604 29.4387 52.3101 29.9383C52.46 30.0882 52.5599 30.288 52.5599 30.4879C52.5599 30.6877 52.46 30.8875 52.3101 31.0374C52.1602 31.1374 52.0103 31.1873 51.8105 31.1873C51.6107 31.1873 51.4608 31.0874 51.3608 30.9875C50.9612 30.5378 50.4615 30.1381 49.862 29.9383C49.2625 29.7384 48.6129 29.4886 47.9634 29.4886C47.4638 29.4886 46.9642 29.5885 46.5146 29.7384C46.0649 29.8883 45.7152 30.1381 45.4154 30.4879C45.1156 30.8376 44.9657 31.2373 44.9657 31.7869C45.0157 32.2865 45.1656 32.6862 45.5153 33.0359C45.8151 33.3357 46.2647 33.6354 46.8143 33.8353C47.3639 34.0351 47.9634 34.235 48.613 34.4348C49.1625 34.5847 49.7121 34.7346 50.2117 34.9344C50.7113 35.1343 51.161 35.3841 51.5607 35.6339C51.9604 35.8837 52.2602 36.2834 52.51 36.7331C52.7598 37.1827 52.8597 37.7323 52.8597 38.3818C52.8597 39.1312 52.6599 39.8307 52.2102 40.3803C51.7605 40.9299 51.211 41.3795 50.5115 41.6793C49.812 41.9791 49.0126 42.1289 48.1133 42.1289C47.1641 42.1289 46.2647 41.9291 45.3654 41.5794C44.4661 41.1797 43.6667 40.5801 43.0172 39.7308Z" fill="url(#paint7_linear)"/>
    <path d="M56.8566 26.391C56.5069 26.391 56.2071 26.2911 56.0073 26.1412C55.8074 25.9913 55.7075 25.7415 55.7075 25.4418V25.192C55.7075 24.8922 55.8074 24.6424 56.0073 24.4925C56.2071 24.3426 56.5069 24.2427 56.8566 24.2427C57.2064 24.2427 57.4562 24.3426 57.656 24.4925C57.8559 24.6424 57.9558 24.8922 57.9558 25.192V25.4418C57.9558 25.7415 57.8559 25.9913 57.656 26.1412C57.4562 26.3411 57.2064 26.391 56.8566 26.391ZM57.6061 41.0798C57.6061 41.2796 57.5061 41.4795 57.3563 41.6294C57.2064 41.7793 57.0065 41.8792 56.8067 41.8792C56.5569 41.8792 56.357 41.7793 56.2071 41.6294C56.0573 41.4795 56.0073 41.2796 56.0073 41.0798V28.9391C56.0073 28.7392 56.0573 28.5394 56.2071 28.3895C56.357 28.2396 56.5569 28.1397 56.7567 28.1397C57.0065 28.1397 57.1564 28.2396 57.3063 28.3895C57.4562 28.5394 57.5061 28.7392 57.5061 28.9391V41.0798H57.6061Z" fill="url(#paint8_linear)"/>
    <path d="M67.6983 42.1289C66.3493 42.1289 65.1502 41.8292 64.101 41.2796C63.0518 40.73 62.2524 39.8807 61.7029 38.8814C61.1033 37.8322 60.8535 36.6331 60.8535 35.2342C60.8535 33.7354 61.1533 32.4863 61.7528 31.4371C62.3524 30.3879 63.1018 29.5885 64.0511 28.989C65.0003 28.4394 65.9996 28.1396 67.0488 28.1396C67.7982 28.1396 68.5476 28.2895 69.2971 28.5393C70.0465 28.7892 70.646 29.2388 71.2456 29.7384C71.7951 30.288 72.2448 30.9375 72.5945 31.6869C72.9443 32.4364 73.1441 33.3357 73.1441 34.3849C73.1441 34.5847 73.0442 34.7846 72.8943 34.9344C72.7444 35.0843 72.5446 35.1343 72.3447 35.1343H61.8028L61.503 33.7354H71.8451L71.4454 33.9852V33.4856C71.3954 32.6862 71.0957 31.9867 70.646 31.3872C70.1964 30.8376 69.6468 30.3879 68.9973 30.0882C68.3478 29.7884 67.6983 29.6385 66.9988 29.6385C66.4492 29.6385 65.9496 29.7384 65.4 29.9383C64.8505 30.1381 64.3508 30.4879 63.9012 30.9375C63.4515 31.3872 63.1018 31.9367 62.802 32.6362C62.5023 33.3357 62.4023 34.1351 62.4023 35.0843C62.4023 36.1335 62.6022 37.0328 63.0518 37.8822C63.4515 38.7315 64.101 39.381 64.8505 39.8807C65.5999 40.3803 66.5991 40.6301 67.6983 40.6301C68.2978 40.6301 68.8474 40.5302 69.347 40.3803C69.8466 40.1804 70.2963 39.9806 70.646 39.6808C71.0457 39.381 71.3455 39.0813 71.5953 38.7815C71.7951 38.6316 71.945 38.5317 72.1449 38.5317C72.3447 38.5317 72.4946 38.5817 72.6445 38.7315C72.7944 38.8814 72.8443 39.0313 72.8443 39.1812C72.8443 39.381 72.7444 39.5809 72.5945 39.7308C72.045 40.3803 71.3954 40.9299 70.5461 41.3795C69.6468 41.8791 68.6975 42.1289 67.6983 42.1289Z" fill="url(#paint9_linear)"/>
    <path d="M82.7366 28.2896C83.9357 28.2896 84.9848 28.5893 85.8842 29.1889C86.7835 29.7884 87.5329 30.5878 88.0825 31.587C88.6321 32.6362 88.8819 33.7853 88.8819 35.1343C88.8819 36.4833 88.6321 37.6324 88.0825 38.6816C87.5329 39.7308 86.7835 40.5302 85.8842 41.1297C84.9349 41.7293 83.9357 42.029 82.7366 42.029C82.137 42.029 81.5375 41.9291 80.9879 41.7293C80.4383 41.5294 79.9387 41.2796 79.4891 40.9798C79.0394 40.6801 78.6397 40.2804 78.29 39.8807C77.9402 39.431 77.6405 38.9814 77.4406 38.4818L77.8903 38.132V46.3257C77.8903 46.5256 77.8403 46.7254 77.6904 46.8753C77.5405 47.0252 77.3407 47.1251 77.1409 47.1251C76.891 47.1251 76.7412 47.0252 76.5413 46.8753C76.3914 46.7254 76.2915 46.5256 76.2915 46.3257V29.1889C76.2915 28.9391 76.3415 28.7892 76.4914 28.5893C76.6412 28.4394 76.8411 28.3395 77.0909 28.3395C77.3407 28.3395 77.4906 28.4394 77.6405 28.5893C77.7904 28.7392 77.8403 28.9391 77.8403 29.1889V31.9867L77.4906 31.7869C77.6904 31.2373 77.9402 30.7377 78.29 30.338C78.6397 29.8883 79.0394 29.5386 79.4891 29.2388C79.9387 28.9391 80.4383 28.6892 80.9879 28.5394C81.5875 28.3895 82.137 28.2896 82.7366 28.2896ZM82.6366 29.7884C81.6874 29.7884 80.838 30.0382 80.1386 30.4879C79.4391 30.9375 78.8396 31.587 78.4399 32.3864C78.0402 33.1858 77.8403 34.0851 77.8403 35.1843C77.8403 36.2335 78.0402 37.1328 78.4399 37.9821C78.8396 38.8315 79.4391 39.431 80.1386 39.9306C80.838 40.3803 81.6874 40.6301 82.6366 40.6301C83.5859 40.6301 84.3853 40.3803 85.0848 39.9306C85.7842 39.481 86.3338 38.8315 86.7835 37.9821C87.1832 37.1827 87.383 36.2335 87.383 35.1843C87.383 34.1351 87.1832 33.2358 86.7835 32.4364C86.3838 31.637 85.8342 30.9875 85.0848 30.5378C84.3853 29.9883 83.536 29.7884 82.6366 29.7884Z" fill="url(#paint10_linear)"/>
    <path d="M104.62 35.1343C104.62 36.4833 104.32 37.6823 103.721 38.7315C103.121 39.7807 102.322 40.6301 101.323 41.2296C100.324 41.8292 99.1744 42.1289 97.9253 42.1289C96.6763 42.1289 95.5771 41.8292 94.5279 41.2296C93.5287 40.6301 92.7293 39.7807 92.1298 38.7315C91.5302 37.6823 91.2305 36.4833 91.2305 35.1343C91.2305 33.7853 91.5302 32.5862 92.1298 31.537C92.7293 30.4879 93.5287 29.6385 94.5279 29.039C95.5272 28.4394 96.6763 28.1396 97.9253 28.1396C99.1744 28.1396 100.324 28.4394 101.323 29.039C102.322 29.6385 103.121 30.4879 103.721 31.537C104.32 32.5363 104.62 33.7354 104.62 35.1343ZM103.021 35.1343C103.021 34.0851 102.822 33.1358 102.372 32.2865C101.922 31.4371 101.323 30.7876 100.573 30.338C99.8239 29.8883 98.9246 29.6385 97.9753 29.6385C97.026 29.6385 96.1267 29.8883 95.3773 30.338C94.6279 30.7876 94.0283 31.4871 93.5787 32.2865C93.129 33.1358 92.9292 34.0851 92.9292 35.1343C92.9292 36.1835 93.129 37.1328 93.5787 37.9821C94.0283 38.8315 94.6279 39.481 95.3773 39.9306C96.1267 40.4302 97.026 40.6301 97.9753 40.6301C98.9246 40.6301 99.8239 40.3803 100.573 39.9306C101.323 39.431 101.922 38.7815 102.372 37.9821C102.772 37.1328 103.021 36.1835 103.021 35.1343Z" fill="url(#paint11_linear)"/>
    <path d="M108.767 41.8293C108.517 41.8293 108.367 41.7294 108.217 41.5795C108.067 41.4296 108.017 41.2298 108.017 41.0299V23.1436C108.017 22.9438 108.067 22.7439 108.217 22.594C108.367 22.4442 108.567 22.3442 108.767 22.3442C109.016 22.3442 109.166 22.4442 109.316 22.594C109.466 22.7439 109.516 22.9438 109.516 23.1436V41.0299C109.516 41.2298 109.466 41.4296 109.316 41.5795C109.216 41.7794 109.016 41.8293 108.767 41.8293ZM117.71 28.3397C117.91 28.3397 118.109 28.4396 118.259 28.5895C118.409 28.7393 118.509 28.9392 118.509 29.139C118.509 29.3888 118.409 29.5887 118.209 29.7386L109.366 37.2828L109.266 35.4342L117.16 28.6394C117.36 28.4396 117.51 28.3397 117.71 28.3397ZM117.959 41.8293C117.71 41.8293 117.51 41.7294 117.36 41.5296L111.365 35.1844L112.564 34.0853L118.509 40.4304C118.659 40.6302 118.759 40.8301 118.759 41.0299C118.759 41.2797 118.659 41.4796 118.459 41.6295C118.259 41.7794 118.059 41.8293 117.959 41.8293Z" fill="url(#paint12_linear)"/>
    <path d="M122.656 26.391C122.306 26.391 122.006 26.2911 121.807 26.1412C121.607 25.9913 121.507 25.7415 121.507 25.4418V25.192C121.507 24.8922 121.607 24.6424 121.807 24.4925C122.006 24.3426 122.306 24.2427 122.656 24.2427C123.006 24.2427 123.256 24.3426 123.455 24.4925C123.655 24.6424 123.755 24.8922 123.755 25.192V25.4418C123.755 25.7415 123.655 25.9913 123.455 26.1412C123.256 26.3411 123.006 26.391 122.656 26.391ZM123.455 41.0798C123.455 41.2796 123.355 41.4795 123.206 41.6294C123.056 41.7793 122.856 41.8792 122.656 41.8792C122.406 41.8792 122.206 41.7793 122.056 41.6294C121.907 41.4795 121.857 41.2796 121.857 41.0798V28.9391C121.857 28.7392 121.907 28.5394 122.056 28.3895C122.206 28.2396 122.406 28.1397 122.606 28.1397C122.856 28.1397 123.006 28.2396 123.156 28.3895C123.305 28.5394 123.355 28.7392 123.355 28.9391V41.0798H123.455Z" fill="url(#paint13_linear)"/>
    <path d="M133.498 42.1289C132.149 42.1289 130.95 41.8292 129.901 41.2796C128.852 40.6801 128.052 39.8807 127.503 38.8814C126.903 37.8322 126.653 36.6331 126.653 35.2342C126.653 33.7354 126.953 32.4863 127.553 31.4371C128.152 30.3879 128.902 29.5885 129.851 28.989C130.8 28.4394 131.799 28.1396 132.849 28.1396C133.598 28.1396 134.347 28.2895 135.097 28.5393C135.846 28.7892 136.446 29.2388 137.045 29.7384C137.595 30.288 138.045 30.9375 138.394 31.6869C138.744 32.4364 138.944 33.3357 138.944 34.3849C138.944 34.5847 138.844 34.7846 138.694 34.9344C138.544 35.0843 138.344 35.1343 138.145 35.1343H127.603L127.303 33.7354H137.645L137.295 34.0351V33.4856C137.245 32.6862 136.945 31.9867 136.496 31.3872C136.046 30.8376 135.497 30.3879 134.847 30.0882C134.198 29.7884 133.548 29.6385 132.849 29.6385C132.299 29.6385 131.799 29.7384 131.25 29.9383C130.7 30.1381 130.201 30.4879 129.751 30.9375C129.301 31.3872 128.952 31.9367 128.652 32.6362C128.352 33.3357 128.252 34.1351 128.252 35.0843C128.252 36.1335 128.452 37.0328 128.902 37.8822C129.301 38.7315 129.951 39.381 130.7 39.8807C131.5 40.3803 132.449 40.6301 133.548 40.6301C134.148 40.6301 134.697 40.5302 135.197 40.3803C135.696 40.1804 136.146 39.9806 136.496 39.6808C136.895 39.381 137.195 39.0813 137.445 38.7815C137.595 38.6316 137.795 38.5317 137.995 38.5317C138.194 38.5317 138.344 38.5817 138.494 38.7315C138.644 38.8814 138.694 39.0313 138.694 39.1812C138.694 39.381 138.594 39.5809 138.444 39.7308C137.895 40.3803 137.245 40.9299 136.396 41.3795C135.447 41.8791 134.497 42.1289 133.498 42.1289Z" fill="url(#paint14_linear)"/>
    <path d="M142.391 41.8295C142.091 41.8295 141.842 41.7295 141.692 41.5297C141.542 41.3298 141.442 41.08 141.442 40.7803V40.2307C141.442 39.9309 141.542 39.6811 141.692 39.4813C141.842 39.2814 142.091 39.2314 142.391 39.2314H142.591C142.891 39.2314 143.141 39.3314 143.29 39.4813C143.44 39.6811 143.54 39.8809 143.54 40.2307V40.7803C143.54 41.08 143.44 41.3298 143.29 41.5297C143.141 41.7295 142.891 41.8295 142.591 41.8295H142.391Z" fill="url(#paint15_linear)"/>
    <path d="M152.733 28.0898C153.583 28.0898 154.382 28.1898 155.081 28.3896C155.781 28.5895 156.331 28.8393 156.78 29.139C157.23 29.4388 157.43 29.7885 157.43 30.1882C157.43 30.3881 157.38 30.538 157.23 30.6879C157.08 30.8377 156.93 30.9377 156.73 30.9377C156.53 30.9377 156.331 30.8877 156.231 30.7878C156.081 30.6879 155.981 30.5879 155.831 30.438C155.731 30.2882 155.531 30.1383 155.281 30.0384C155.032 29.9384 154.732 29.8385 154.282 29.7386C153.832 29.6387 153.383 29.6387 152.833 29.6387C151.834 29.6387 150.985 29.8885 150.185 30.3881C149.386 30.8877 148.786 31.5372 148.337 32.3366C147.887 33.1859 147.637 34.0853 147.637 35.1345C147.637 36.1837 147.837 37.1329 148.287 37.9823C148.736 38.8316 149.336 39.4811 150.085 39.9807C150.885 40.4804 151.784 40.6802 152.783 40.6802C153.483 40.6802 154.032 40.6302 154.432 40.4804C154.832 40.3804 155.131 40.2306 155.431 40.0807C155.781 39.8808 156.031 39.681 156.181 39.5311C156.331 39.3312 156.53 39.2313 156.78 39.2313C156.98 39.2313 157.18 39.2813 157.28 39.4312C157.38 39.581 157.48 39.7309 157.48 39.9308C157.48 40.2306 157.28 40.5303 156.88 40.8801C156.48 41.2298 155.881 41.5296 155.181 41.7794C154.482 42.0292 153.633 42.1791 152.683 42.1791C151.384 42.1791 150.235 41.8793 149.236 41.2797C148.237 40.6802 147.487 39.8309 146.938 38.7817C146.388 37.7325 146.088 36.5334 146.088 35.1844C146.088 33.8854 146.388 32.7363 146.938 31.6871C147.487 30.6379 148.287 29.7885 149.286 29.139C150.235 28.3896 151.384 28.0898 152.733 28.0898Z" fill="url(#paint16_linear)"/>
    <path d="M172.868 35.1343C172.868 36.4833 172.568 37.6823 171.968 38.7315C171.369 39.7807 170.57 40.6301 169.57 41.2296C168.571 41.8292 167.422 42.1289 166.173 42.1289C164.924 42.1289 163.825 41.8292 162.775 41.2296C161.776 40.6301 160.977 39.7807 160.377 38.7315C159.778 37.6823 159.478 36.4833 159.478 35.1343C159.478 33.7853 159.778 32.5862 160.377 31.537C160.977 30.4879 161.776 29.6385 162.775 29.039C163.775 28.4394 164.924 28.1396 166.173 28.1396C167.422 28.1396 168.571 28.4394 169.57 29.039C170.57 29.6385 171.369 30.4879 171.968 31.537C172.568 32.5363 172.868 33.7354 172.868 35.1343ZM171.269 35.1343C171.269 34.0851 171.069 33.1358 170.619 32.2865C170.17 31.4371 169.57 30.7876 168.821 30.338C168.071 29.8883 167.172 29.6385 166.223 29.6385C165.274 29.6385 164.374 29.8883 163.625 30.338C162.875 30.7876 162.276 31.4871 161.826 32.2865C161.377 33.1358 161.177 34.0851 161.177 35.1343C161.177 36.1835 161.377 37.1328 161.826 37.9821C162.276 38.8315 162.875 39.481 163.625 39.9306C164.374 40.4302 165.274 40.6301 166.223 40.6301C167.172 40.6301 168.071 40.3803 168.821 39.9306C169.57 39.431 170.17 38.7815 170.619 37.9821C171.019 37.1328 171.269 36.1835 171.269 35.1343Z" fill="url(#paint17_linear)"/>
    <path d="M182.161 28.2896C183.26 28.2896 184.159 28.5893 184.959 29.1389C185.708 29.6885 186.258 30.5378 186.557 31.687L186.208 31.7869L186.358 31.3372C186.607 30.7876 186.957 30.338 187.507 29.8384C188.056 29.3387 188.656 28.989 189.355 28.7392C190.055 28.4894 190.754 28.3395 191.454 28.3395C192.553 28.3395 193.452 28.5893 194.102 29.039C194.801 29.4886 195.251 30.1381 195.551 30.9375C195.85 31.7369 196 32.6362 196 33.6355V41.0798C196 41.2796 195.95 41.4795 195.8 41.6293C195.65 41.7792 195.451 41.8792 195.251 41.8792C195.001 41.8792 194.801 41.7792 194.651 41.6293C194.501 41.4795 194.451 41.2796 194.451 41.0798V33.6854C194.451 32.986 194.351 32.2865 194.102 31.7369C193.852 31.1374 193.502 30.6877 193.002 30.338C192.503 29.9883 191.853 29.7884 191.054 29.7884C190.305 29.7884 189.605 29.9883 188.956 30.338C188.306 30.6877 187.756 31.1873 187.357 31.7369C186.957 32.3365 186.757 32.986 186.757 33.6854V41.0298C186.757 41.2296 186.707 41.4295 186.557 41.5794C186.408 41.7293 186.208 41.8292 186.008 41.8292C185.758 41.8292 185.608 41.7293 185.458 41.5794C185.308 41.4295 185.258 41.2296 185.258 41.0298V33.6355C185.258 32.936 185.158 32.2865 184.959 31.687C184.759 31.1374 184.409 30.6378 183.909 30.288C183.46 29.9383 182.81 29.7384 182.011 29.7384C181.311 29.7384 180.612 29.9383 179.962 30.288C179.313 30.6378 178.813 31.0874 178.414 31.687C178.014 32.2365 177.814 32.886 177.814 33.6355V41.0798C177.814 41.2796 177.714 41.4795 177.564 41.6293C177.414 41.7792 177.215 41.8792 177.015 41.8792C176.765 41.8792 176.565 41.7792 176.415 41.6293C176.265 41.4795 176.215 41.2796 176.215 41.0798V29.2888C176.215 29.0889 176.315 28.8891 176.465 28.7392C176.615 28.5893 176.815 28.4894 177.065 28.4894C177.314 28.4894 177.464 28.5893 177.614 28.7392C177.764 28.8891 177.814 29.0889 177.814 29.2888V31.7369L177.115 32.6862C177.165 32.1366 177.314 31.637 177.614 31.0874C177.914 30.5378 178.264 30.0882 178.763 29.6885C179.213 29.2888 179.763 28.9391 180.362 28.6892C180.962 28.4394 181.461 28.2896 182.161 28.2896Z" fill="url(#paint18_linear)"/>
    <defs>
        <linearGradient id="paint0_linear" x1="79.0289" y1="8.24683" x2="135.398" y2="12.8374" gradientUnits="userSpaceOnUse">
            <stop stop-color="#E93E3A"/>
            <stop offset="1" stop-color="#FFF33B"/>
        </linearGradient>
        <linearGradient id="paint1_linear" x1="75.2594" y1="54.5394" x2="131.629" y2="59.13" gradientUnits="userSpaceOnUse">
            <stop stop-color="#E93E3A"/>
            <stop offset="1" stop-color="#FFF33B"/>
        </linearGradient>
        <linearGradient id="paint2_linear" x1="88.7315" y1="10.6504" x2="134.827" y2="10.6504" gradientUnits="userSpaceOnUse">
            <stop stop-color="#E93E3A"/>
            <stop offset="1" stop-color="#FFF33B"/>
        </linearGradient>
        <linearGradient id="paint3_linear" x1="77.6629" y1="58.5489" x2="118.853" y2="58.5489" gradientUnits="userSpaceOnUse">
            <stop stop-color="#E93E3A"/>
            <stop offset="1" stop-color="#FFF33B"/>
        </linearGradient>
        <linearGradient id="paint4_linear" x1="0" y1="35.0972" x2="195.957" y2="35.0972" gradientUnits="userSpaceOnUse">
            <stop stop-color="#EF4823"/>
            <stop offset="1" stop-color="#FACE1D"/>
        </linearGradient>
        <linearGradient id="paint5_linear" x1="-7.5715e-05" y1="35.2545" x2="195.957" y2="35.2545" gradientUnits="userSpaceOnUse">
            <stop stop-color="#EF4823"/>
            <stop offset="1" stop-color="#FACE1D"/>
        </linearGradient>
        <linearGradient id="paint6_linear" x1="-0.000113791" y1="35.0971" x2="195.957" y2="35.0971" gradientUnits="userSpaceOnUse">
            <stop stop-color="#EF4823"/>
            <stop offset="1" stop-color="#FACE1D"/>
        </linearGradient>
        <linearGradient id="paint7_linear" x1="0.000135902" y1="35.0971" x2="195.958" y2="35.0971" gradientUnits="userSpaceOnUse">
            <stop stop-color="#EF4823"/>
            <stop offset="1" stop-color="#FACE1D"/>
        </linearGradient>
        <linearGradient id="paint8_linear" x1="0.000149798" y1="33.0191" x2="195.958" y2="33.0191" gradientUnits="userSpaceOnUse">
            <stop stop-color="#EF4823"/>
            <stop offset="1" stop-color="#FACE1D"/>
        </linearGradient>
        <linearGradient id="paint9_linear" x1="0.000104706" y1="35.0971" x2="195.957" y2="35.0971" gradientUnits="userSpaceOnUse">
            <stop stop-color="#EF4823"/>
            <stop offset="1" stop-color="#FACE1D"/>
        </linearGradient>
        <linearGradient id="paint10_linear" x1="-0.0001021" y1="37.701" x2="195.957" y2="37.701" gradientUnits="userSpaceOnUse">
            <stop stop-color="#EF4823"/>
            <stop offset="1" stop-color="#FACE1D"/>
        </linearGradient>
        <linearGradient id="paint11_linear" x1="0.000334524" y1="35.0971" x2="195.958" y2="35.0971" gradientUnits="userSpaceOnUse">
            <stop stop-color="#EF4823"/>
            <stop offset="1" stop-color="#FACE1D"/>
        </linearGradient>
        <linearGradient id="paint12_linear" x1="-0.000248133" y1="32.1117" x2="195.957" y2="32.1117" gradientUnits="userSpaceOnUse">
            <stop stop-color="#EF4823"/>
            <stop offset="1" stop-color="#FACE1D"/>
        </linearGradient>
        <linearGradient id="paint13_linear" x1="-0.000171317" y1="33.0191" x2="195.957" y2="33.0191" gradientUnits="userSpaceOnUse">
            <stop stop-color="#EF4823"/>
            <stop offset="1" stop-color="#FACE1D"/>
        </linearGradient>
        <linearGradient id="paint14_linear" x1="0.000209817" y1="35.0971" x2="195.958" y2="35.0971" gradientUnits="userSpaceOnUse">
            <stop stop-color="#EF4823"/>
            <stop offset="1" stop-color="#FACE1D"/>
        </linearGradient>
        <linearGradient id="paint15_linear" x1="0.000744432" y1="40.5553" x2="195.957" y2="40.5553" gradientUnits="userSpaceOnUse">
            <stop stop-color="#EF4823"/>
            <stop offset="1" stop-color="#FACE1D"/>
        </linearGradient>
        <linearGradient id="paint16_linear" x1="5.92106e-05" y1="35.0972" x2="195.958" y2="35.0972" gradientUnits="userSpaceOnUse">
            <stop stop-color="#EF4823"/>
            <stop offset="1" stop-color="#FACE1D"/>
        </linearGradient>
        <linearGradient id="paint17_linear" x1="0.000162" y1="35.0971" x2="195.957" y2="35.0971" gradientUnits="userSpaceOnUse">
            <stop stop-color="#EF4823"/>
            <stop offset="1" stop-color="#FACE1D"/>
        </linearGradient>
        <linearGradient id="paint18_linear" x1="0.000295009" y1="35.0708" x2="195.958" y2="35.0708" gradientUnits="userSpaceOnUse">
            <stop stop-color="#EF4823"/>
            <stop offset="1" stop-color="#FACE1D"/>
        </linearGradient>
    </defs>
</svg>
