<svg xmlns="http://www.w3.org/2000/svg" display="none">
    <symbol id="arrow-bottom" viewBox="0 0 11 9">
        <path d="M5.68333 8.86119L10.8396 0.823903C10.961 0.634664 10.961 0.331168 10.8396 0.141929C10.7182 -0.0473097 10.5235 -0.0473097 10.4021 0.141929L5.46572 7.83645L0.529338 0.141928C0.407933 -0.0473104 0.213227 -0.0473104 0.0918226 0.141928C0.0322657 0.234762 0.000195493 0.359731 0.00019549 0.48113C0.000195486 0.602528 0.0299749 0.727497 0.0918226 0.820332L5.2481 8.85762C5.36722 9.04686 5.56421 9.04686 5.68333 8.86119Z"/>
    </symbol>

    <symbol id="arrow-right" viewBox="0 0 8 10">
        <path d="M8 5L0.5 9.33013L0.5 0.669873L8 5Z"/>
    </symbol>
    <symbol id="arrow-left" viewBox="0 0 6 12">
        <path d="M5.79053 0.619141L0.790527 6.29622L5.79053 11.9733L5.79053 0.619141Z"/>
    </symbol>

    <symbol id="arrow-right2" viewBox="0 0 6 12">
        <path d="M0.209473 11.3809L5.20947 5.70378L0.209474 0.0266914L0.209473 11.3809Z"/>
    </symbol>


</svg>
